<?xml version="1.0" encoding="UTF-8"?>
<svg width="14px" height="12px" viewBox="0 0 14 12" version="1.1" xmlns="http://www.w3.org/2000/svg" xmlns:xlink="http://www.w3.org/1999/xlink">
    <!-- Generator: Sketch 61.2 (89653) - https://sketch.com -->
    <title>Bed</title>
    <desc>Created with Sketch.</desc>
    <g id="Camp-Halibut" stroke="none" stroke-width="1" fill="none" fill-rule="evenodd" stroke-linecap="round" stroke-linejoin="round">
        <g id="Reservation-list" transform="translate(-270.000000, -554.000000)" stroke="#262626" stroke-width="0.6">
            <g id="Results" transform="translate(237.000000, 448.000000)">
                <g id="Vecka-32">
                    <g id="Sovplats" transform="translate(34.000000, 103.000000)">
                        <g id="Bed" transform="translate(0.000000, 4.000000)">
                            <path d="M10.3947867,4.61538462 L2.19646373,4.61538462 C1.28361283,4.61538462 0.461538462,5.35078921 0.461538462,6.35136863 L0.461538462,8.96025974 C0.461538462,9.08031968 0.632373314,9.23076923 0.741906672,9.23076923 L11.8493438,9.23076923 C11.9589318,9.23076923 12,9.08031968 12,8.96025974 L12,6.35136863 C12,5.35078921 11.3076376,4.61538462 10.3947867,4.61538462 Z" id="Path"></path>
                            <path d="M12,6.70651407 C12,6.57122702 11.9111921,6.46153846 11.8016588,6.46153846 L0.659879694,6.46153846 C0.550346336,6.46153846 0.461538462,6.57122702 0.461538462,6.70651407 L0.461538462,8.98579362 C0.461538462,9.12108068 0.550346336,9.23076923 0.659879694,9.23076923 L11.8016588,9.23076923 C11.9111921,9.23076923 12,9.12108068 12,8.98579362 L12,6.70651407 Z" id="Path"></path>
                            <path d="M10.6153846,3.69230769 L10.6153846,0.17211336 C10.6153846,0.0423643725 10.5683289,0 10.4620159,0 L1.61076923,0 C1.50450928,0 1.38461538,0.0423643725 1.38461538,0.17211336 L1.38461538,3.69230769" id="Path"></path>
                            <line x1="0.230769231" y1="8.30769231" x2="0.230769231" y2="10.6153846" id="Path"></line>
                            <line x1="11.7692308" y1="8.30769231" x2="11.7692308" y2="10.6153846" id="Path"></line>
                            <path d="M9.12580728,4.15299248 C9.12580728,3.3857963 9.23076923,2.5778799 9.23076923,2.5778799 C9.23076923,2.44171901 9.16028622,2.31785102 9.07335354,2.31785102 C9.07335354,2.31785102 8.58389421,2.47543911 8.10314995,2.47543911 C7.62240568,2.47543911 7.08054709,2.30769231 7.08054709,2.30769231 C6.99355994,2.30769231 6.92307692,2.41636492 6.92307692,2.55261117 C6.92307692,2.55261117 7.02803888,3.33184415 7.02803888,4.15384615" id="Path"></path>
                            <path d="M4.97201064,4.15299248 C4.97201064,3.3857963 5.07692308,2.5778799 5.07692308,2.5778799 C5.07692308,2.44171901 5.00643674,2.31785102 4.91955442,2.31785102 C4.91955442,2.31785102 4.43001752,2.47543911 3.94930503,2.47543911 C3.4684836,2.47543911 2.92659942,2.30769231 2.92659942,2.30769231 C2.83960817,2.30769231 2.76923077,2.41636492 2.76923077,2.55261117 C2.76923077,2.55261117 2.87408873,3.33184415 2.87408873,4.15384615" id="Path"></path>
                        </g>
                    </g>
                </g>
            </g>
        </g>
    </g>
</svg>