<?xml version="1.0" encoding="UTF-8"?>
<svg width="14px" height="14px" viewBox="0 0 14 14" version="1.1" xmlns="http://www.w3.org/2000/svg" xmlns:xlink="http://www.w3.org/1999/xlink">
    <!-- Generator: Sketch 61.2 (89653) - https://sketch.com -->
    <title>Check</title>
    <desc>Created with Sketch.</desc>
    <g id="Camp-Halibut" stroke="none" stroke-width="1" fill="none" fill-rule="evenodd">
        <g id="Reservation-list" transform="translate(-271.000000, -625.000000)" fill="#12B320" fill-rule="nonzero">
            <g id="Results" transform="translate(237.000000, 448.000000)">
                <g id="Vecka-32">
                    <g id="USP" transform="translate(34.000000, 173.000000)">
                        <g id="Möjlighet-att-hyra-">
                            <g id="Check" transform="translate(0.000000, 4.000000)">
                                <path d="M7,-8.8817842e-16 C3.13400675,-8.8817842e-16 -1.77635684e-15,3.13400675 -1.77635684e-15,7 C-1.77635684e-15,10.8659932 3.13400675,14 7,14 C10.8659932,14 14,10.8659932 14,7 C14,3.13400675 10.8659932,-8.8817842e-16 7,-8.8817842e-16 Z M7,13 C3.6862915,13 1,10.3137085 1,7 C1,3.6862915 3.6862915,1 7,1 C10.3137085,1 13,3.6862915 13,7 C13,8.59129894 12.367859,10.1174224 11.2426407,11.2426407 C10.1174224,12.367859 8.59129894,13 7,13 Z" id="Shape"></path>
                                <polygon id="Shape" points="5.84 8.27 4.84 7.33 4.16 8.06 5.94 9.73 9.89 4.81 9.11 4.19"></polygon>
                            </g>
                        </g>
                    </g>
                </g>
            </g>
        </g>
    </g>
</svg>