<?xml version="1.0" encoding="UTF-8"?>
<svg width="14px" height="14px" viewBox="0 0 14 14" version="1.1" xmlns="http://www.w3.org/2000/svg" xmlns:xlink="http://www.w3.org/1999/xlink">
    <!-- Generator: Sketch 63.1 (92452) - https://sketch.com -->
    <title>User</title>
    <desc>Created with Sketch.</desc>
    <g id="Icons" stroke="none" stroke-width="1" fill="none" fill-rule="evenodd">
        <g id="keyicons.com" transform="translate(-175.000000, -305.000000)" fill="#000000" fill-rule="nonzero">
            <g id="User" transform="translate(175.000000, 305.000000)">
                <path d="M7,3 C5.61928813,3 4.5,4.11928813 4.5,5.5 C4.5,6.88071187 5.61928813,8 7,8 C8.38071187,8 9.5,6.88071187 9.5,5.5 C9.5,4.11928813 8.38071187,3 7,3 L7,3 Z M7,7 C6.17157288,7 5.5,6.32842712 5.5,5.5 C5.5,4.67157288 6.17157288,4 7,4 C7.82842712,4 8.5,4.67157288 8.5,5.5 C8.5,6.32842712 7.82842712,7 7,7 Z" id="Shape"></path>
                <path d="M7,-8.8817842e-16 C3.13400675,-8.8817842e-16 -1.77635684e-15,3.13400675 -1.77635684e-15,7 C-1.77635684e-15,10.8659932 3.13400675,14 7,14 C10.8659932,14 14,10.8659932 14,7 C14,3.13400675 10.8659932,-8.8817842e-16 7,-8.8817842e-16 Z M3.6,11.94 C3.66295448,11.755944 3.73640831,11.5756482 3.82,11.4 C4.44966779,10.214128 5.68995075,9.48028517 7.03249092,9.49925356 C8.37503109,9.51822194 9.59408659,10.2868121 10.19,11.49 C10.26,11.64 10.32,11.8 10.38,11.96 C9.38179223,12.6350076 8.20500851,12.9970949 7,13 C5.78550606,12.9989166 4.59993326,12.6292969 3.6,11.94 L3.6,11.94 Z M11.18,11.29 C11.18,11.21 11.12,11.11 11.07,11.02 C10.2953042,9.51800357 8.75493096,8.56616145 7.06504683,8.54522112 C5.3751627,8.5242808 3.81167642,9.43766122 3,10.92 C2.93980978,11.0354956 2.88962623,11.1559361 2.85,11.28 C1.10333829,9.57589463 0.562747538,6.9836947 1.48267073,4.72348596 C2.40259393,2.46327721 4.59975365,0.985363811 7.04,0.985363811 C9.48024635,0.985363811 11.6774061,2.46327721 12.5973293,4.72348596 C13.5172525,6.9836947 12.9766617,9.57589463 11.23,11.28 L11.18,11.29 Z" id="Shape"></path>
            </g>
        </g>
    </g>
</svg>