<svg xmlns="http://www.w3.org/2000/svg" xmlns:xlink="http://www.w3.org/1999/xlink" version="1.1" id="Lager_1" x="0px" y="0px" viewBox="0 0 283.5 283.5" style="enable-background:new 0 0 283.5 283.5;" xml:space="preserve">
<style type="text/css">
	.st0{fill:#0089CF;}
	.st1{fill:none;stroke:#000000;stroke-miterlimit:10;}
	.st2{fill:#FFFFFF;stroke:#000000;stroke-width:0.9264;stroke-linecap:round;stroke-linejoin:round;stroke-miterlimit:10;}
	.st3{fill:#FFFFFF;stroke:#000000;stroke-width:0.8592;stroke-linecap:round;stroke-linejoin:round;stroke-miterlimit:10;}
	.st4{fill:#FFFFFF;}
</style>
<g>
	<path class="st0" d="M33.6,132.1c0,0,2.5,26.8,34.5,26.8c-15.2,4.2-21.5,8.2-21.5,8.2c-6.2,2.8-11.8,11.2-4.8,20   c0,0,4.8,4.3,12.5,2.5c9.1-2.1,11.5-0.9,20,2.4c5.9,2.3,12.1,9.1,18.3,11.4c11.1,4.1,18.5,0.5,18.5,0.5s-4.5-3.6-10.5-13.2   c-4.6-7.4-10-17-4.8-24.5c0,0,2.8,7,12.8,6.8c9.3-0.2,8.7-0.5,21.2-0.8c9.2-0.2,14.8,9.9,25.8,3c7.7-4.8,30,4.9,28.8-24.2   c0,0,4.8,7,10,7.5c2.1-0.1,5.2-1.2,6.8-7.8c1.9-15.8,25.3-14.9,35.3-3.9c13.5,14.9,3.5,27.1-4.6,29.5c3.6,0.6,11.6,1.2,13.6,10.5   c1.2,5.5,0.1,15.1-11,19.3c-8.7,3.3,0.5-7.1-2-12c-4.7-9-11.3,3.3-11.3,3.3c-9.1,22.4,2.3,28.3,2.3,28.3   c-58.2-4.7-86.7,6.3-94.3,11.7c0,0-25.7,19.3-45.7,9.3c-12.1-6,1-33-23.7-26.7c16.6,8.7,4.7,18.3,4.7,18.3   c-29.1,12.5-38-54.9-36.1-69.1c-5.4,2.8-10.8-2.1-14.2-7.9c-6.2-10.4-7.3-36-6.2-48.1C9.3,99,9.6,83.3,21.5,73.4   c19.2-15.8,44.6,26.7,14.8,30c-5.7,0.6-15.7,0-15.4-7.7c0.4-9.1,10.8-7.5,15-2.2c-6.9-3.8-14.5,7.2,0.6,5.7c8.3-0.8,13.4-11,4-15   c-12-5-22.8,7.4-26.5,16.7c-4.5,11.4-5.4,28.8,3.3,38.7C17.3,139.6,25.6,147.4,33.6,132.1z"/>
	<path class="st1" d="M222.2,86.8c0,0,26.5-13.8,11.5-30.6c-13.8-15.5-48.5-4-59-0.5s-39.5,21-48,13.5s2.5-49.5-32.5-38   s-43,51-32,69.5"/>
	<g>
		<g>
			<g>
				<path d="M114,120.2c-1.7-2-5.1-1.5-7.4-0.9c-0.3,0.8-0.7,1.3-0.7,2c1-0.3,2.6-0.2,2.9,0.7c-1.4-0.1-5-0.7-4.4,1.8      c2.4-1,3.8,1.6,5.4,0.7c0.2-0.1,0.5-1,0.8-1.3c0.5-0.4,1.1-0.4,1.6-0.8c0.7-0.5,1.4-1.5,1.4-2.3"/>
				<g>
					<path d="M81.7,160.9c9.1-2.9,30.2-39.1,38.3-45.4c0,0-1.1,1.7,1.2,1.7c2.3,0,4.5-3.4,4.8-7.8c0-0.8,10-16.4,15.1-16.6       c0,0,3.1,3.3,6,0.7c2.9-2.6,1-3.9,0.5-5c-0.5-1.2,0.6-2.3,5-3.2c4.4-0.9,1.5,2.1,6.4,0.5c4.9-1.6,7.2-3.8,11.3-4.4       c4.1-0.6,38.5-5.6,47.6,0.2c0,0,0.8-1.2-1.3-1.8c0,0-5-1.6-8.6-1.5c-3.6,0.1-8.1-0.2-12.4,0.1c-4.3,0.3-38.9,1.2-50.2,8.8       c0,0-22.7,19.9-27.9,25.8c-5.2,5.9-25.1,37.7-30.2,43.6c-3.7,4.3-3.7,4.3-3.9,6.2"/>
					<path d="M181.2,107.5c-9-7.7-24.4-6.5-22.5-5.5c6.9,3.7,1.5,4.6,5.6,7.6c3.7,2.6,2.9,6.2,5.1,8.3c1.4,1.4,3.5,2.2,5.4,1.5       c-1.4-0.1-3.5-1.1-4.6-2c-1.3-1.2-1.5-3.2-2.4-4.9c-0.6-1.1-2.3-3.1-2.2-4.4c0.1-1.8,1.7-1.4,3.3-1.7c-0.3-0.6,0-0.6-0.8-0.8       c0-1.9,3.4-1.4,4.5-0.9"/>
					<g>
						<path class="st2" d="M201.1,80.6c4-1.6,8.7,0.9,5.3-3.3c-2.2-2.8-5.5,0-5.5,3C201.2,80.5,200.7,80.5,201.1,80.6"/>
						<path d="M202.6,78c0.8,0.8,3.1,1.8,3.6-0.2C206.6,75.9,202.5,75.3,202.6,78"/>
					</g>
					<path d="M190.8,96.8c5.7,2.3,4.6,8.3,6.7,10.2c1.5,1.3,5.5,0.9,7.2,0.6c3-0.4,10.9-1.1,15.2-9.6c-1.2,0.4-7.8,5-9.2,5.4       c-1,0.3-4-0.1-3.6,1.4c0.3,0,0.9,0.2,1.1,0.2c-2.1,1-7.7,1.7-9.1-0.4c-0.8-1.3-1.1-3.2-2-4.6C196.4,98.7,193.2,95.8,190.8,96.8       "/>
					<path d="M184.3,108.7c-3.6-0.6-12.8-6.9-17.9-5.4c2.1-0.3,7.8,2.2,8.2,3.5c0.5,1.5-2.7,0.7-3.9,1.3c0.8,0.4,4,0.8,3.9,1.8       c-0.1,0.9-3.1,1-4,1.2c0.9,0.6,3.2,0.6,4.1,0.3c-2,0.9-3.3,1.6-5.5,1.9c3.2,0.6,5.8,0.6,9,0.2c-0.9,2-4.3,3.1-6.5,3.2       c1.4,0,5.1,0.9,4.6-0.4c-1.1,1.4-2.4,1.9-4.2,2.2c0.9,2.8,9.7,1.8,10.9,0.8c1.8-1.6,0,0,1.8-1.3c0.9-0.7,5-7.4,3.5-8.2       c-1.7-0.9-6.2,4.8-8.7,1.3C177.3,107.8,183,108.9,184.3,108.7"/>
					<g>
						<path class="st3" d="M212,91.2c0.9-1.1,2.9-2.9,1.6-4.5c-1.1-1.4-4.3-1.4-5.3-0.5c-3.8,3.3,1.5,8.3,4.4,4.2"/>
						<ellipse transform="matrix(0.8876 -0.4607 0.4607 0.8876 -17.3571 107.5566)" cx="211.7" cy="89.3" rx="2.1" ry="1.5"/>
					</g>
					<path d="M87.6,155.7c0,0-10.7,7-5,6.2c1.7-0.3-0.4,6,2.8,2.1c9.8-12.3,47.9-51,80.3-57.9l-3.9-1.7c0,0-39.7,18.2-66.8,46       c0,0-12.8,11.8-12.5,11.5c7.6-6,7.6-6,7.7-9.3"/>
					<path d="M227.7,89.6c-0.7-0.9-5.2-1.7-5.5-2.8c-0.4-1.1,0.2-5.9-0.5-6.9c-1-1.5-5.2-0.4-5,1.8c0.2,1.4,0.8,2.9,1.6,3.9       C219,86.6,226,91.6,227.7,89.6"/>
					<path d="M221.6,97.9c-3.3,0.4-3.9,3.5-6.5,8.2c4.1-3,4.4-7.4,7.6-10"/>
					<path d="M180.4,102.8c0,0,0.1,0,0.1,0c-0.1,0-0.2-0.1-0.3-0.1L180.4,102.8z"/>
					<path d="M139.8,97.9c-3.6,0.5-3.5,0.8-5.4,3.3c-1.1,1.3-3.6,4.4-3.1,6.6c2.4,0.5,7.9,0,8.6-2.4c0.6-2.1-1.2-2.3,0-4.5       c0.7-1.3,3.6,0.5,2.2-2.9c-0.9,0.2-2.4,0-2.9,0"/>
					<path d="M163,92c-2.2-0.9-6.6-0.1-6.6,1.3c0.1,2.2,4.9,1.2,6.1,0.9c2.7-0.5,0.9-1.6,1.1-2c-0.8-0.4-1.5-0.5-2.4-0.4"/>
					<path d="M105.4,147.8c-5.2,0.2-2.5,5.9,0.5,4.2c2.8-1.6,0.9-5.6-2.1-3.9"/>
					<path d="M112.3,147.9c-2.3,0.1-0.1,2.5,1.2,1.7C114.7,148.9,113.6,147.1,112.3,147.9"/>
					<path d="M97.9,150.7c-2.3,0.1-1.1,2.6,0.2,1.9c1.2-0.7,0.1-2.5-1.2-1.7"/>
					<path d="M153.1,88.9c-2.3,0.1-1.1,2.6,0.2,1.9c1.2-0.7,0.1-2.5-1.2-1.7"/>
					<ellipse transform="matrix(0.9896 -0.1438 0.1438 0.9896 -18.8991 18.3653)" cx="117.6" cy="139.9" rx="3.6" ry="1.5"/>
					<path d="M186.7,72.9l-3.8,0.1c0,0,3.4,5.7,3.4,5.7c0.1,0-5.4-5.1-5.4-5.1l3.4,5.2c0,0-5.2-4.8-7-5.4c-1.9-0.6-6.6,1.8-11.7,3.3       c-5.1,1.4-6.3,1.4-6.3,1.4l-0.5,5.4c0,0-1.7-4.7-3.4-4.2c-1.7,0.5-13.5,3.3-13.5,3.3l7.1,3.7c0,0-8.7-2.6-11.6-2.1       c-2.8,0.4-0.7,3.9,6.9,7.2c4.7,2.1-15.2-4.8-19.4-3.6c-7.7,2.2-1,4.6-5.1,7c-4.1,2.4-3.9,8.6-3.9,8.6       c2.4-1.8,10.2,0.9,10.2,0.9l-1.9,1.8c-2.6-1.6-10.1-2.5-9.7,0.4c0.4,2.9,2.4,4.2-1.6,7.4c-4,3.2-10.1,9.8-10.5,16.5       c-0.4,6.7-6.5,9.5-8.5,13.2c-2.1,3.8-3,8.2-3,8.2c-0.5-2.2-0.1-5.4,0.9-7.5c1.7-3.6,6.5-4.9,7.4-9c0.8-3.6,2.5-6.5,2.7-10.2       c0.4-6.2,4.9-8.7,9.2-12.3c3-2.5,2.5-6.8,3.4-10.7c0.8-3.6,1-4.3,2.6-8c2.3-5.2,1.5-6.7,4.3-9.2c3.8-3.3,12.2-1.9,16.9-3       c6-1.4,11.5-2.4,17.6-3.8c-6.1,1.4-7.4,2.1-7.5,1.7c16.2-4,18.1-5,21.5-6.1c2.4-0.8,4.8-1.4,7.4-1.7c2.1-0.2,8.8,0,11.4-0.5       c4.5,3.5,5.2,6.8,5.2,6.8S191.2,73.9,186.7,72.9z"/>
					<path d="M136.3,95.2c-1.9-2.8-8.1-4.2-11.2-3.6c0.9,1.9,4.2,0.7,5.1,2.4c-1,0.4-8.7-2-7.9,0.5c2.1-1.1,5.1,0,6.2,1.6       c-1.8,0.2-5.1-0.4-6.5,0.9c2,0.9,4.3-0.3,6.4,0.2c1.6,0.4,3.6,3.8,4.5,1.4"/>
					<path d="M226.9,88.2c-1.4,0.9-2.4-0.2-3.7-0.6c-0.3,1.1,3.6,2.2,3.8,0.3"/>
				</g>
			</g>
			<path d="M229.2,89.6c-0.2-1.3-0.5-3.1-0.9-3.4c-0.2-1-1.1-0.6-2.4-0.4c-2.2,0.4,0.9,2.1-0.4,3.5l0.6,0.1l0,0     c-0.1,3.1,1.9,4-7.7,8.8c-2.8,1.4-1.4,6.1-1.4,6.1c4.1-7.5,8.2-8.9,11.3-11.1C230.2,92,229.5,91.8,229.2,89.6z"/>
			<path d="M194,78.2c-3.7,0.6-6.9,1-8.1,4c-0.8,2.3,3.7,6.7-2.5,6.4c0.4-3.8,0.4-7.2-4.7-7.8c0.7,3.2,0.6,7.1,1,11.3     c-1.7,0.9-4.6,1.9-6.4,0.7c-3.9-2.6-0.4-3.4,0.5-5.8c0.6-1.8,4.3-2.9,1.4-5.6c-0.9-0.8-5.3,0.2-6.7-0.3c5.8-2.5,15-3.3,21.5-2.9"/>
			<path d="M217.3,85.4c3.1,7.3,8.4,4.4,6.4,6.5C219.7,96.3,217.5,87.5,217.3,85.4C217.3,85.4,217.3,85.4,217.3,85.4"/>
		</g>
		<g>
			<path d="M84.7,163.9l0.2,0.6C84.8,164.2,84.8,164,84.7,163.9z"/>
			<path d="M83.9,159.3c-5.2,4.3-13.3,4.5-19.9,7.6c-5.6,2-16.1,2.6-19.3,8.7c-1.6,3-2.9,7.5,0.8,7.5c4.6,0.1,0.8-1.8,3-6.1     c1.9-3.7,8.6-6.8,13.3-9c-1.7,1-3.2,2.4-4.5,4.1c-2,2.8-4.4,4-5.5,7c-0.7,2-4.6,7.7,2.2,5.1c-0.4-5.7,0.5-8.7,6.6-11     c2.1-0.8,7-2.7,9.3-2c0,0,0,0,0,0c-3.7,1.9-7.7,3.7-9.8,5.7c-1.2,1.2-4.1,3.9-4.2,5.8c-0.1,1.8,1.1,2.1,2.7,1.8     c7.4-1.4,8.9,1.5,13,2.9c24.1,8.1,22.2,9.5,9.8-1.1c-2.4-2.1,0.3-5.8,2-8.6c1.1-1.9,0.5-7.6,0-9.9c-1.9,7.4-1.6,9.1-2.9,11.6     c-1.5,2.9-1.5,5.9-2.7,8.8c-1.4-0.8-2.7-2.4-4.1-3c-1.6-0.6-3.1,0.4-4.5-0.1c0.7-2.9,4.4-5.4,6-7.9c-4.3,1.5-6.8,6-11.5,6.5     c1.3-2.4,2.9-3.8,5.2-5c2.5-1.4,5.6-9,7.2-11.4c-0.6-0.4-1.3,0.2-1.9,1.1c0,0,0,0,0,0c-2.5,1-7.1,1.2-8.1,1.7     c3.6-3.6,10.5-5.2,15.5-5.9l0-0.1c0.7,1.8,2.5,3.7,3.8,4.8c-0.7,1.5-0.8,5.4,0.2,8.1c1.2,3.3,1.1,6.5,2.3,10     c0.9,2.7,5.7,4.1,6.5,6.8c2,7.2-7.5,0-8.6,2.2c2.7,0,5,0.8,7.5,2.4c1.9,1.2,8.2,1.5,10.1,2.1c0.7-1.8-5.4-4.4-6.1-6.2     c-0.2-0.6-0.5-1-0.8-1.5c0,0,0,0,0,0c-0.7-1.7-3.4-5.7-4.4-7.3c-6.6-10-6.7-10.5-5.5-15.5c0.1,0.1,0.1,0.1,0.1,0.1l-0.1-0.2     c0.1-0.3,0.1-0.6,0.2-0.9c-0.3-0.4-0.5-0.6-0.7-0.6l-1.4-3.8l0,0l-0.6-0.6c0.1-0.1,0.2-0.1,0.3,0 M71.9,173.1l-1.9,1     c-2.3,2.1-6.2,7.3-8.1,8.1c-1.1,0.4-3.7-0.2-4.4,0.7c0.6-1.5,4.3-4.8,5.3-6.2c1.1-1.4,4.4-2,6-2.7l2.4-2.1     C71.7,172.2,71.9,172.7,71.9,173.1z M95.4,190.7c-0.2-0.3-0.1-0.1,0.1,0.2C95.4,190.8,95.4,190.8,95.4,190.7z"/>
		</g>
		<path d="M218.7,101.6c-2,1-4.2,5.3-5.8,6.9c-3.9,3.8-9.3,5-14.7,4.5c-4.9-0.4-6.3-4.5-8.8-8.4c-1.7-2.7-7-3.4-8.8-1.9    c0.9,0.3,1.7-0.1,2.7,0.2c1.3,0.3,2.4,1.3,3.5,2c2.6,1.7,3.7,2.8,4,5.7c0.2,2.4,6.3,6.4,8.8,7.4c2.7,1.1,5.8,0.7,8.5-0.5    l-7.9,11.5c-2.6,2.5-3.8,4.7-7.5,6.2c-1.5,0.6-3.1,1-4.5,1.8c1.5-1.5,1.3-3.3-2.7-4c0.5-1.1,1.9-8-1.1-5.2    c-1.7,1.6-1.5,7.5-0.4,8.5c-0.5,0.7-1.4,1.3-2.5,1.7c-0.5-1.1-1.1-1.8-1.8-1.1c-0.3,0.3-0.4,0.9-0.3,1.6c-1.8,0.4-3.8,0.5-5,0.5    c-0.7,0-1.2,0-1.5,0c0.5-1.5-0.6-2.5-2.6-2.3c-1.3-0.2-2.4,1.5-3,2.7c-2.1-1.5-0.2-0.9,1.4-4.1c0.9-1.9,0.8-3.7-1.9-6.8    c-4.5-5-4.9,4.3-4.5,8.1c-0.8,0.1-1.4,0.7-1.4,1.3c0,0.7,0.8,1.3,1.8,1.3c0.7,0,1.4-0.4,1.6-0.9c6.2,3.1-6.8,10.1-8.4,5.9    c-0.8-2.2,6.3-5.7-0.3-6.2c-4.2-0.3-5.6,5.1-1.1,4.9c-1.8,2.2-1.1,4.4-2.9,6.2c-1.1-0.1-2.2,0.4-2.9,1.3c-1.2,1.6-1,2.9-2,4    c-5.7,2.4-7-1.1-7.8,0.7c-0.3,0.7-0.9,1.2-1.6,1.8c-0.6,0.1-1.2,0.2-1.8,0.3c-0.4,0.1-0.7,0.2-1.1,0.2c-1.9,0.3-3.8,0.6-5.6,1    c-0.2,0-0.4,0.1-0.6,0.1c-0.6,0.1-1.3,0.2-1.9,0.3c-6.1,0.8-12.2-0.6-18.5-0.2c-19.3,1.1-22.3,8-21.1,13.3    c1.7-7.8,8.8-9.9,13.6-10.5c0,2,3.3,2.7,5.5,3c5.5,0.7,8.6,3.3,15.1,2.3c5.1-0.8,10.4-1.8,15.6-1.5c4.1,0.2,10.9-0.2,15,0    c5,0.8,15.8,2.6,21.7-5.7c0,0,0,0,0,0c2.4-2.5,3.3-7.3,5.2-9.9c1.2-1.7,1.7-2.2,3-3.8c0.3-0.3,2.1-1.4,2.7-2.1    c1.9-1.5,3-3.6,6.6-5.3c1.6-0.8,0,0,3.6-2.5c0.8-0.6,0.3-0.2,1.2-0.8c2.6,1.5,0,3.7,1.1,5c2.4,3,3.9-2.3,4-4    c0.1,0.2,0.4,0.6,0.5,1c1.3,1.5,3.2-3.1,3.7-9.5c2.1-2.6,8.3-12.2,9.4-15.6c1.9-2.6,3.3-5.1,3.7-7.3c0,0,0,0,0,0    C217.6,104.6,218.5,102.1,218.7,101.6z M156.8,152c-0.8,0.2-2.2-0.1-3-0.5c-0.7-0.3-0.4-0.4-0.7-0.9c0.2-2.8,4.4-4,4.6,0.2    C158.7,151.9,157.1,151.9,156.8,152z M167,148c1.9,1.5-1.7,2.3-2.5,2.5c-1,0.2-1.6-1.4-2.5-1.6c-0.1,0-0.2-0.1-0.3-0.1    c-1.7-1.6,3.1-5.5,5.2-1C167.1,147.9,167.1,147.9,167,148z M174.2,143.3c-0.7,0.9-0.2,1.6-2.1,2.3c-1.3,0.7-1.3,0.7-1.7-0.6    c0.1-1.9,0.7-2.7,2.2-3.5C174.4,141.1,175,142.1,174.2,143.3z M183.4,140.8c-0.5,0.2-1-0.6-1.4-1.6c0.9-0.1,1.7-0.2,2.4-0.4    c0.9-0.2,1.6-0.5,2.3-0.9C185.9,138.9,185.1,140.3,183.4,140.8z M197.5,139.6c0.3-4,0.4-4.5-0.2-5.8c0.6-0.4,1.1-0.7,1.7-1.2l0,0    c0.3,0.8-0.3,2-0.3,2.7C198.2,137.7,198.7,138.4,197.5,139.6z M200.1,135.2c0,0-0.1,0-0.1,0c0.4-1.6-0.2-3.4-0.2-3.4l0,0    c0.5-0.6,2.7-2.3,3.2-3.2C202.9,129.1,202,136.9,200.1,135.2z M204.7,115.2c0.5-2,8.1-5.4,9.5-7.1c0.4-0.4,0.8-0.8,1.3-1.3    C213.2,109.9,209.3,115.5,204.7,115.2z"/>
	</g>
	<path class="st4" d="M112.3,166.4c0,0,7.6,0,11.7-7.2l4.3-0.6C128.4,158.6,117.7,169.1,112.3,166.4z"/>
	<path class="st4" d="M122.4,168.4c0,0,8.3-3.9,10.5-11.9l7.8-2.4C140.7,154.2,130.4,167.1,122.4,168.4z"/>
	<path d="M193.7,136.3c0.4,1.5,1.1,5.1,3.2,4.6c0-2-2.9-2.7-2.6-5.4"/>
	<g>
		<g>
			<path class="st4" d="M134.1,179.8c1.4,0,2.8,0.2,3.9,0.7v1.7c0,0.4,0,0.8-0.4,0.8c-0.3,0-0.3-0.1-0.4-0.4     c-0.4-1.3-2.3-1.7-3.4-1.7c-1.7,0-3.7,1-3.7,2.9c0,3.6,7.4,4.2,7.4,9.4c0,3-2.5,6-7.8,6c-1.5,0-3-0.2-4.4-0.6     c-0.1-1-0.3-2.4-0.3-2.7c0-0.2,0.1-0.4,0.4-0.4c0.3,0,0.4,0.3,0.5,0.5c0.5,1.5,2.7,2.1,4,2.1c2.3,0,4.5-1.4,4.5-3.8     c0-3.7-7.2-4.9-7.2-9.1C127.2,181.5,130.6,179.8,134.1,179.8z"/>
			<path class="st4" d="M151.2,184.5l-1.2,1.9c1.1,0.7,1.7,2,1.7,3.8c0,4.2-3,8.8-7.6,8.8c-0.7,0-1.2-0.1-1.7-0.3l-0.9,1.5h-1     l1.1-1.9c-1.2-0.6-1.8-2-1.8-3.8c0-4.2,3-8.8,7.6-8.8c0.7,0,1.3,0.1,1.8,0.3l1-1.6H151.2z M148.1,187.9c-0.3-0.6-0.8-1.1-1.6-1.1     c-2.9,0-3.7,4.9-3.7,7c0,0.6,0,1.5,0.2,2.3L148.1,187.9z M143.4,197.1c0.3,0.6,0.8,1,1.6,1c2.9,0,3.7-4.9,3.7-7     c0-0.6,0-1.4-0.2-2.2L143.4,197.1z"/>
			<path class="st4" d="M154.5,198.5c0.5-3.4,1.3-8.9,1.3-10.2c0-0.5,0-1-0.4-1c-0.5,0-1.3,0.4-1.8,0.6l-0.2-0.7     c1.5-0.9,4.2-1.5,4.9-1.5c0.3,0,0.4,0.1,0.4,0.6c0,1.2-0.3,2.5-0.5,4.8l0.1,0.1c0.7-1.9,2.6-5.5,4.9-5.5c0.6,0,1.2,0.3,1.2,1     c0,0.8-0.7,1.1-1.5,1.1c-0.4,0-0.8-0.1-1.2-0.3c-1,0.4-1.8,1.9-2.3,2.9c-1.1,2.2-1.4,3-2.1,8H154.5z"/>
			<path class="st4" d="M176,184.5l-1.2,1.9c1.1,0.7,1.7,2,1.7,3.8c0,4.2-3,8.8-7.6,8.8c-0.7,0-1.2-0.1-1.7-0.3l-0.9,1.5h-1l1.1-1.9     c-1.2-0.6-1.8-2-1.8-3.8c0-4.2,3-8.8,7.6-8.8c0.7,0,1.3,0.1,1.8,0.3l1-1.6H176z M172.9,187.9c-0.3-0.6-0.8-1.1-1.6-1.1     c-2.9,0-3.7,4.9-3.7,7c0,0.6,0,1.5,0.2,2.3L172.9,187.9z M168.2,197.1c0.3,0.6,0.8,1,1.6,1c2.9,0,3.7-4.9,3.7-7     c0-0.6,0-1.4-0.2-2.2L168.2,197.1z"/>
			<path class="st4" d="M177.3,187.9c2-1.4,4.1-2.1,4.4-2.1c0.5,0,2.4,4.5,3.4,10.2c1.1-1.9,3-6.4,3-8.2c0-1.1-1.1-0.4-1.1-1.1     c0-0.4,0.4-0.4,0.7-0.4h2.3c-0.4,3.2-3.6,10.1-6.9,14.5c-1.3,1.9-3.7,4.3-6.2,4.3c-0.7,0-1.7-0.3-1.7-1.1c0-0.7,0.7-1,1.3-1     c0.7,0,1.2,0.3,1.7,0.8c1.9-0.5,3.7-3.1,4.6-4.8c0.2-1.5-2.7-11.3-3.7-11.3c-0.3,0-1.1,0.5-1.5,0.8L177.3,187.9z"/>
			<path class="st4" d="M199.5,186c1.1,0,2,0.1,2.9,0.3c0-1,0.1-1,0.6-1h0.5l0.1-0.1c-1.2,5.1-1.6,9.9-1.5,11c0,0.6,0,1,0.4,1     c0.4,0,1.5-0.7,1.9-0.9l0.3,0.6c-2.3,1.5-4.4,2.1-5,2.1c-0.5,0-0.5-0.6-0.5-1.6c0-0.8,0.2-2.2,0.3-3.2l-0.1-0.1     c-0.9,2-3,4.9-5.4,4.9c-2.1,0-2.8-2.3-2.8-4C191.2,190.5,194.9,186,199.5,186z M195.6,197c1.7,0,4.2-2.9,4.8-10     c-0.3-0.1-0.5-0.1-0.8-0.1c-3.6,0-5.4,4.6-5.4,7.6C194.2,195.3,194.4,197,195.6,197z"/>
		</g>
		<g>
			<path class="st4" d="M135.6,214.7v-5.5c0-0.8-0.2-1.3-0.6-1.3h-0.9v-0.7h3.6v0.7h-0.7c-0.2,0-0.4,0-0.4,0.2v11.3     c0,0.2-0.1,0.2-0.2,0.2c-0.3,0-0.5-0.3-0.7-0.5l-8.5-9.1v7.4c0,0.8,0.1,1.3,0.6,1.3h0.9v0.7h-3.6v-0.7h0.7c0.2,0,0.4,0,0.4-0.2     v-8.2c0-2.4-1.5-2.4-1.9-2.4v-0.7h4.2L135.6,214.7z"/>
			<path class="st4" d="M138.8,213.6c0-2.7,1.7-6.8,6.8-6.8c3.7,0,6.4,2.2,6.4,6.1c0,2.7-1.7,6.8-6.9,6.8     C141.5,219.8,138.8,217.5,138.8,213.6z M145.9,219c2.4,0,3-2.5,3-4.3c0-2.4-0.8-7.1-4.1-7.1c-2.4,0-3,2.5-3,4.3     C141.9,214.4,142.6,219,145.9,219z"/>
			<path class="st4" d="M157.8,216.8c0,0.4,0,1.8,0.5,1.8h1.1v0.7h-5.7v-0.7c0.9,0,1,0,1-0.2v-9.4c0-1.2-0.3-1.2-0.6-1.2h-0.9v-0.7     h6.2c0.4,0,4.3,0,4.3,3.7c0,0.6-0.5,2.2-2.5,2.4c0.9,1.7,2.2,3.7,3.3,4.9c0.3,0.3,0.5,0.5,1,0.5v0.7h-2.8c-0.8,0-0.9,0-1.2-0.3     c-0.8-0.9-2.1-3.7-2.7-5.2h-0.9V216.8z M157.8,213.1h0.5c1.5,0,2.3-0.8,2.3-2.3c0-1.3-1-2.8-2.4-2.8c-0.2,0-0.4,0-0.4,0.2V213.1z     "/>
			<path class="st4" d="M183.7,207.9h-0.8c-0.2,0-0.2,0-0.4,0.3l-4.6,11.1c-0.1,0.2-0.1,0.4-0.3,0.4c-0.3,0-0.5-0.6-0.6-0.9     l-3.1-7.2l-3,7.7c-0.1,0.2-0.1,0.4-0.3,0.4c-0.3,0-0.5-0.6-0.6-0.9l-3.9-9.1c-0.7-1.7-0.8-1.8-1.3-1.8h-0.5v-0.7h5.5v0.7H169     c-0.1,0-0.2,0-0.2,0.1c0,0.3,1,2.3,3,7l1.7-4.6c-0.6-1.4-1-2.5-1.5-2.5h-0.5v-0.7h5.7v0.7H176c-0.1,0-0.2,0-0.2,0.1     c0,0.2,1.7,4,3,7.1l2-4.8c0.2-0.5,0.7-1.6,0.7-2.2c0-0.2-0.2-0.2-0.4-0.2H180v-0.7h3.7V207.9z"/>
			<path class="st4" d="M184.8,215.2c-0.1,0.2-1,2.5-1,3.2c0,0.3,0.2,0.3,0.5,0.3h1.1v0.7h-3.9v-0.7h0.5c0.5,0,0.5,0,0.6-0.3     c0.3-1.1,4.4-10.7,4.7-11.1c0.6-0.1,1.8-0.4,2-0.4c0.2,0,0.3,0.2,0.3,0.3c0,0.3-0.4,0.3-0.4,0.7c0,0.5,2.1,6,3.3,9     c0.6,1.5,0.7,1.8,1.2,1.8h0.6v0.7h-5.6v-0.7h0.8c0.1,0,0.3,0,0.3-0.2c0-0.1-0.7-2.2-1.1-3.3H184.8z M186.8,210.5l-1.6,3.9h3     L186.8,210.5z"/>
			<path class="st4" d="M204.7,207.9h-0.5c-0.4,0-0.5,0-0.6,0.3l-3.2,5.9v2.8c0,0.4,0,1.8,0.5,1.8h1v0.7h-5.7v-0.7     c0.9,0,1.1,0,1.1-0.2v-4.2l-2.4-4.6c-0.9-1.8-1.1-1.8-1.7-1.8h-0.4v-0.7h5.8v0.7h-0.8c-0.3,0-0.3,0-0.3,0.1c0,0.2,0.7,1.4,2.5,5     c1.6-3.2,2.3-4.4,2.3-4.9c0-0.2-0.2-0.2-0.5-0.2H201v-0.7h3.8V207.9z"/>
		</g>
	</g>
	<g>
		<path d="M52.1,143.8c-7.2-2.3-15.8-10.5-11.1-25.1c0.8-2.3,2-4.8,3.5-6.9l2.2,0.9c1.3,0.5,1.8,0.6,1.6,1.4    c-0.2,0.6-0.5,0.7-1.3,0.6c-1.5-0.3-3.3,2.3-4.1,4.6c-2.6,8,3.4,15,10.6,17.4c5.1,1.7,10.7,0.5,12.5-5.3c0.9-2.7,0.9-7.6-1.8-9.4    c-0.5-0.3-0.7-0.6-0.6-1.2c0.1-0.5,0.5-0.6,1-0.4c0.5,0.2,1.5,0.8,3.8,1.8c0.5,4,0,8.3-1.3,12.2C64.9,141.9,60.1,146.4,52.1,143.8    z"/>
		<path d="M80.1,101.6c-0.2,3.1-0.9,6.6-2,8.6c-0.6,1-2.2,0.1-2.9-0.3c-0.8-0.4-1.9-1.1-3.9-2.5l-0.1,0c2,2.9,4.2,7.7,2.3,11.1    c-1.5,2.8-5.1,2.3-7.4,1c-6-3.3-9.7-11.6-6-18.3c1.1-1.9,1.4-2.5,3.5-4.7L63,96.3c-0.7-0.4-0.7-0.9,0-2.5    c5.8,5.1,8.4,7.1,13.9,10.1c0.5,0.3,1.2,0.6,1.4,0.1c0.1-0.3,0.3-1.3,0.6-2.8L80.1,101.6z M71.6,113.3c0.9-1.7-1.1-4.8-2.2-6    c-1.9-2.2-3.9-3.8-7.2-6.2c-0.2,0.2-0.3,0.4-0.5,0.6c-2.3,4.2,2.7,9.6,6.1,11.5C68.8,113.6,70.9,114.5,71.6,113.3z"/>
		<path d="M81.3,102.1C78.8,99.3,71,91,70.3,90.3c-0.3-0.3-0.8-0.7-1.2-0.3c-0.3,0.3-0.5,0.9-1.2,2.4l-1.3-0.6    c1.2-3.2,3.2-6.6,4.7-8.3c0.3-0.4,0.4-0.4,0.9,0c0.9,0.7,2.9,2.7,4.9,4.8l0.1,0c-1.2-2.6-3-8.1-0.5-11c1.1-1.3,3-0.7,4.5,0.5    c0.9,0.8,1.6,1.4,2.7,2.6l0.1,0c-1.4-2.8-2.8-8.4-0.7-10.8c1.6-1.9,3.4-1.4,5.2,0.2c2,1.7,7.6,8.3,8.5,9.1c0.4,0.3,0.8,0.4,1.2,0    c0.2-0.2,0.4-0.6,1-2.3l1.1,0.4c-0.2,1.8-2.4,6.5-3.7,8.1c-0.6,0.7-1.5,0.2-2-0.3c-1.7-1.5-7.7-8.4-8.8-9.3    c-0.5-0.5-1.2-0.8-1.5-0.4c-0.5,0.6,0,2,0.5,3.3c1.1,3.2,2.4,5.2,7.6,11l-3.8,4.4l-9-9.9c-0.4-0.4-1.6-1.5-2-1    c-0.4,0.5-0.3,1.2,0.2,3.3c0.6,2,3.1,6.6,7.4,11.4L81.3,102.1z"/>
		<path d="M116.3,81.8l-9.9,7.6l-0.8-1.4l0.7-0.5c0.8-0.6,0.8-0.8,0.5-1.1c-4.3-7.2-10.6-19.2-12.5-21.7c-0.3-0.3-0.6-0.8-1.1-0.5    c-0.3,0.2-0.7,0.8-1.7,2.1l-1.1-0.8c1.9-2.9,4.5-5.8,6.3-7.2c0.4-0.3,0.5-0.3,0.9,0.2c0.8,1.1,1.8,2.2,3.5,5.8l0.1,0    c-0.7-3.7-1-8.7,2.4-11.2c2.5-1.9,5.4,0,7,2.1c5.4,7.1,3.5,15.3-1.4,19.1l-1.7,1.3c1,1.8,2.7,4.9,3.8,6.3c1,1.3,1.3,1.1,2.1,0.5    l2.3-1.7L116.3,81.8z M107.3,73.6c5.1-3.9,1-11-0.6-13c-0.8-1-2.5-2.9-3.6-2.1c-0.9,0.7-2.6,5.4,3.6,15.6L107.3,73.6z"/>
		<path d="M132.5,42.7c2.4,8.4,2.6,9.9,3,10.8c0.6,1.5,1,1.4,1.9,1l1.8-0.8l0.4,1.6l-12.3,5.1l-0.4-1.6l1.6-0.7    c0.9-0.4,0.9-0.6,0.8-1c-0.5-1.2-4.6-18.5-6.2-22.3c-0.4-0.9-0.4-1-1.2-0.7l-2.4,1l-0.4-1.6l12.3-5.1l0.4,1.6l-1.7,0.7    c-0.4,0.2-0.9,0.4-0.7,0.9c0.2,0.6,0.7,2.8,2.5,9.1l8.8-3.7c-0.7-2.5-1.6-6.2-2.5-8.5c-0.4-0.9-0.4-1-1.2-0.7l-2.4,1l-0.4-1.6    l12.2-5.1l0.4,1.6l-1.6,0.7c-0.4,0.2-0.9,0.4-0.7,0.9c0.7,2.1,4.5,18.3,6,21.8c0.6,1.5,1,1.4,1.9,1l1.7-0.7l0.4,1.6l-12.2,5.1    l-0.4-1.6l1.6-0.7c0.9-0.4,0.9-0.6,0.8-1c-0.3-0.6-0.2-1.2-3.1-11.9L132.5,42.7z"/>
		<path d="M177.5,41.9c-2.4,1.9-5.4,3.8-7.7,4.4c-1.2,0.3-1.6-1.6-1.8-2.3c-0.2-0.9-0.4-2.2-0.8-4.6l-0.1-0.1    c-0.8,3.5-2.7,8.3-6.6,9.3c-3.1,0.8-5.2-2.1-5.8-4.8c-1.7-6.7,1.9-15,9.3-16.8c2.1-0.5,2.8-0.7,5.8-0.7l-0.1-0.6    c-0.2-0.8,0.2-1.2,1.8-1.7c0.2,7.7,0.5,11,2,17c0.1,0.6,0.3,1.3,0.9,1.1c0.3-0.1,1.2-0.7,2.4-1.5L177.5,41.9z M163.2,43.6    c1.9-0.5,2.8-4.1,2.9-5.7c0.4-2.9,0.1-5.4-0.3-9.5c-0.2,0-0.5,0-0.7,0c-4.7,1.2-5.2,8.5-4.3,12.4    C161.1,41.7,161.8,43.9,163.2,43.6z"/>
		<path d="M188.8,39.7c-2,1.7-6.8,4.2-8,4.4c-1.2,0.2-1.7-2.1-1.8-2.7c-0.7-4.7-0.4-18.9-1.4-25.5c-0.1-0.5-0.1-0.9-0.7-0.8    c-0.4,0.1-1,0.3-2.4,1l-0.6-1.2c2.9-1.6,6.2-2.8,9.1-3.4c0.4-0.1,0.5-0.1,0.6,0.6c0.6,3.6,0.9,25.2,1.2,26.7    c0.1,0.5,0.2,1.3,0.8,1.2c0.5-0.1,1.9-1.1,2.4-1.5L188.8,39.7z"/>
		<path d="M202,39c-2.6,1.6-5.9,3-8.2,3.2c-1.3,0.1-1.6-2.3-1.7-3.3c-0.2-1.8,0.6-11.1,0.4-13.4c0-0.4-0.1-1.1-0.7-1    c-0.4,0-1,0.3-2.5,0.9l-0.5-1.3c3.1-1.5,6.9-2.6,9.1-2.8c0.5,0,0.6,0,0.6,0.6c0.4,4-0.7,12.1-0.4,15.7c0.1,0.6,0.1,1.3,0.7,1.3    c0.3,0,1.3-0.5,2.6-1.1L202,39z M196.1,12.3c1.5-0.1,2.7,0.8,2.8,2.3c0.2,1.8-1.7,3.8-3.5,4c-1.5,0.1-2.7-0.8-2.8-2.3    C192.4,14.5,194.3,12.5,196.1,12.3z"/>
		<path d="M202.6,11.2c3.1-1.2,6.5-2,9.5-2.2c0.4,0,0.5,0,0.5,0.6c0.1,3.1-1,11.5-1.6,17.3l0.1,0.1c1.4-3.1,4-6.6,7.8-6.7    c3.3-0.1,4.7,2.6,4.7,5.6c0.2,7.5-5.4,14.4-13.1,14.6c-1.8,0.1-3.6-0.3-5.4-0.8l0.1,1.1c0.1,0.7-0.2,0.8-2,0.9    c0.7-3.6,2.9-28.3,2.9-29c0-0.5,0-0.9-0.6-0.9c-0.4,0-1,0.2-2.5,0.7L202.6,11.2z M215.6,23.8c-1,0-5.1,3.3-5.9,15l0.7,0    c5.3-0.1,7-7.7,6.9-11.9C217.3,25.9,217.1,23.8,215.6,23.8z"/>
		<path d="M225.3,22.1c3.3-1,7.2-1.6,9.4-1.5c0.5,0,0.6,0.1,0.5,0.7c-0.2,4.4-2,11.1-2.1,13.6c0,0.6,0,1.4,0.8,1.4    c1.7,0.1,4.5-4.7,5.7-9.9l1.1-4.6l5.7,0.3c-1.3,9.3-1.9,12-2.1,15.4c0,0.6-0.1,1.3,0.5,1.3c0.3,0,1.3-0.3,2.7-0.7l0.3,1.2    c-2.8,1.2-6.3,2.1-8.6,2c-1.2-0.1-1.1-1.9-1-2.7c0.1-1.9,0.3-3.9,0.4-5.8l-0.1-0.1c-1.2,3.3-4.8,8.4-8.8,8.2    c-2.2-0.1-3-2.1-2.9-4.1c0.1-2.3,1.7-11.7,1.8-12.8c0-0.4,0-1.1-0.5-1.1c-0.4,0-1.1,0.2-2.6,0.5L225.3,22.1z"/>
		<path d="M261,40.4c-2.3,1.2-5.7,2.1-8.3,1.9c-2.7-0.3-3.2-1.8-3-4.2c0.3-2.7,1.7-8.4,3.3-13.9l-2.2-0.2l0.4-1.5l1.3,0.1    c1.4,0.1,3.2-1.4,7.1-5l1.2,0.1l-1.4,5.6l3.9,0.4l-0.4,1.5l-3.9-0.4c-1.6,5.5-2.8,11.7-2.9,12.8c-0.1,0.9-0.2,2.2,1,2.3    c0.6,0.1,1.7-0.2,3.4-0.8L261,40.4z"/>
	</g>
</g>
</svg>