<?xml version="1.0" encoding="UTF-8"?>
<svg width="12px" height="12px" viewBox="0 0 12 12" version="1.1" xmlns="http://www.w3.org/2000/svg" xmlns:xlink="http://www.w3.org/1999/xlink">
    <!-- Generator: Sketch 61.2 (89653) - https://sketch.com -->
    <title>Calendar</title>
    <desc>Created with Sketch.</desc>
    <g id="Camp-Halibut" stroke="none" stroke-width="1" fill="none" fill-rule="evenodd" fill-opacity="0.85">
        <g id="Reservation-list" transform="translate(-271.000000, -525.000000)" fill="#000000" fill-rule="nonzero">
            <g id="Results" transform="translate(237.000000, 448.000000)">
                <g id="Vecka-32">
                    <g id="Datum" transform="translate(34.000000, 74.000000)">
                        <g id="Calendar" transform="translate(0.000000, 3.000000)">
                            <path d="M11,1 L9,1 L9,0 L8,0 L8,1 L4,1 L4,0 L3,0 L3,1 L1,1 C0.44771525,1 0,1.44771525 0,2 L0,11 C0,11.5522847 0.44771525,12 1,12 L11,12 C11.5522847,12 12,11.5522847 12,11 L12,2 C12,1.44771525 11.5522847,1 11,1 Z M11,11 L1,11 L1,5 L11,5 L11,11 Z M1,4 L1,2 L1,2 L1,2 L3,2 L3,3 L4,3 L4,2 L8,2 L8,3 L9,3 L9,2 L11,2 L11,4 L1,4 Z" id="Shape"></path>
                        </g>
                    </g>
                </g>
            </g>
        </g>
    </g>
</svg>